<?xml version="1.0" standalone="no"?>
<!DOCTYPE svg PUBLIC "-//W3C//DTD SVG 1.1//EN" "http://www.w3.org/Graphics/SVG/1.1/DTD/svg11.dtd" >
<!--
2014-1-31: Created.
-->
<svg xmlns="http://www.w3.org/2000/svg">
<metadata>
Created by FontForge 20120731 at Fri Jan 31 17:15:30 2014
 By sofrente
Created by sofrente with FontForge 2.0 (http://fontforge.sf.net)
</metadata>
<defs>
<font id="fontcustom" horiz-adv-x="512" >
  <font-face 
    font-family="fontcustom"
    font-weight="500"
    font-stretch="normal"
    units-per-em="512"
    panose-1="2 0 6 9 0 0 0 0 0 0"
    ascent="448"
    descent="-64"
    bbox="-9.72516e-05 -64.2363 512.218 448"
    underline-thickness="25.6"
    underline-position="-51.2"
    unicode-range="U+F100-F114"
  />
    <missing-glyph />
    <glyph glyph-name="uniF100" unicode="&#xf100;" 
d="M180.795 115.745l-68.1553 76.2549l68.1553 76.2549l160.65 179.745l68.1543 -76.2559l-160.65 -179.744l160.65 -179.745l-68.1543 -76.2549z" />
    <glyph glyph-name="uniF101" unicode="&#xf101;" 
d="M341.445 268.255l68.1543 -76.2549l-68.1543 -76.2549l-160.65 -179.745l-68.1553 76.2559l160.65 179.744l-160.65 179.745l68.1553 76.2549z" />
    <glyph glyph-name="uniF102" unicode="&#xf102;" 
d="M0 7.67969h512v-71.6797h-512v71.6797zM344.178 448v-212.059h116.622l-209.92 -197.541l-209.92 197.541h116.622v212.059h186.596z" />
    <glyph glyph-name="uniF103" unicode="&#xf103;" 
d="M455.111 389.818c15.9287 0 29.3926 -5.48438 40.3906 -16.4512c10.999 -10.9668 16.498 -24.3926 16.498 -40.2764v-340.363c0 -15.1279 -5.49902 -28.3643 -16.498 -39.709c-10.998 -11.3457 -24.4619 -17.0186 -40.3906 -17.0186h-398.223
c-15.1699 0 -28.4443 5.67285 -39.8223 17.0186c-11.3779 11.3447 -17.0664 24.5811 -17.0664 39.709v340.363c0 15.8838 5.68848 29.3096 17.0664 40.2764s24.6523 16.4512 39.8223 16.4512h26.1689v-56.7275h91.0225v56.7275h164.978v-56.7275h91.0225v56.7275h25.0312v0z
M453.818 -5.81836v226.909h-395.637v-226.909h395.637v0zM151.272 448v-98.9092h-40.7266v98.9092h40.7266v0zM407.272 448v-98.9092h-40.7266v98.9092h40.7266v0z" />
    <glyph glyph-name="uniF104" unicode="&#xf104;" 
d="M256 448v0c141.385 0 256 -114.615 256 -256s-114.615 -256 -256 -256s-256 114.615 -256 256s114.615 256 256 256zM365.844 328.094v0l-166.156 -166.156l-53.875 53.9062l-52.8438 -52.8438l53.875 -53.9062l53.1875 -53.1875l52.875 52.8438l166.125 166.156z" />
    <glyph glyph-name="uniF105" unicode="&#xf105;" 
d="M256 448v0c141.385 0 256 -114.615 256 -256s-114.615 -256 -256 -256s-256 114.615 -256 256s114.615 256 256 256z" />
    <glyph glyph-name="uniF106" unicode="&#xf106;" 
d="M0 376.32h512v-74.1338l-256 -150.358l-256 150.358v74.1338zM0 256.591l135.529 -73.8135l-135.529 -135.713v209.526zM512 256.591v-209.526l-135.529 135.713zM166.219 166.794l89.7812 -52.7666l89.7812 52.7666l166.219 -179.594h-512z" />
    <glyph glyph-name="uniF107" unicode="&#xf107;" 
d="M330.322 183.467c0 -42.416 -33.2754 -76.7998 -74.3223 -76.7998s-74.3223 34.3838 -74.3223 76.7998c0 42.415 33.2754 76.7998 74.3223 76.7998s74.3223 -34.3848 74.3223 -76.7998v0zM256 345.6v0c47.8047 -0.716797 92.4346 -11.8945 132.637 -31.4287
c34.5234 -17.5879 64.9365 -39.3252 90.3418 -65.8623c12.4863 -14.1406 32.6973 -37.4307 33.0215 -56.3008c-2.74414 -21.7832 -19.7158 -42.2002 -33.0215 -56.2998c-27.0918 -27.6221 -58.3174 -50.0166 -90.3418 -65.8789
c-43.085 -20.3906 -88.6377 -31.2305 -132.637 -31.4287c-47.9092 0.625 -92.4297 11.8809 -132.652 31.4287c-34.5244 17.5879 -64.9209 39.3418 -90.3262 65.8789c-12.4863 14.1396 -32.6973 37.4307 -33.0215 56.2998c2.74414 21.7832 19.7158 42.2002 33.0215 56.3008
c27.0918 27.6211 58.3018 50 90.3262 65.8623c43.1318 20.5166 88.6943 31.2334 132.652 31.4287zM256 311.467v0c-68.4131 0 -123.871 -53.4863 -123.871 -119.467s55.458 -119.467 123.871 -119.467s123.871 53.4863 123.871 119.467s-55.458 119.467 -123.871 119.467z
" />
    <glyph glyph-name="uniF108" unicode="&#xf108;" 
d="M0 386.56v0h512v-388.932h-512v388.932zM62.9375 323.942v0v-263.696h386.125v263.696h-386.125zM391.438 303.069v0l43.3125 -25.04l-89.5 -155.667l-23.6875 -41.2441l-20.5 42.9053l-32 66.9736l-47.0625 -73.5557l-17.1875 -26.8584l-21.9688 23.1289
l-28.0312 29.5225l-45.5625 -38.1406l-32.0312 38.4854l63.5312 53.1846l17.9688 15.0752l16.1562 -17.0186l22.2188 -23.4111l54.0938 84.4932l24.1875 37.8281l19.375 -40.5547l30.875 -64.5605z" />
    <glyph glyph-name="uniF109" unicode="&#xf109;" 
d="M250.88 448v0l230.4 -180.191v-331.809h-158.516v200.303h-143.77v-200.303h-158.515v331.809z" />
    <glyph glyph-name="uniF10A" unicode="&#xf10a;" 
d="M252.726 447.983c70.4932 0.742188 130.968 -23.374 181.426 -72.3477s76.4287 -108.707 77.9131 -179.2c0.742188 -70.4932 -23.5596 -131.153 -72.9043 -181.982s-109.264 -76.9854 -179.757 -78.4697c-70.4922 -0.742188 -131.153 23.5596 -181.982 72.9043
s-76.6143 109.264 -77.3564 179.757c-1.48438 70.4922 22.6318 131.153 72.3477 181.982s109.82 76.6143 180.313 77.3564v0zM281.664 363.393c-15.582 0 -27.6406 -4.45312 -36.1738 -13.3574s-12.7998 -18.1797 -12.7998 -27.8252
c-0.741211 -10.3887 2.04102 -18.5508 8.34766 -24.4873c6.30762 -5.93652 15.3975 -8.9043 27.2695 -8.9043c14.0986 0 25.415 4.08105 33.9482 12.2432c8.5332 8.16309 12.7998 18.1797 12.7998 30.0527c0 21.5186 -11.1299 32.2783 -33.3916 32.2783v0zM214.882 32.8184
c11.1309 0 26.7129 4.82324 46.748 14.4697c20.0342 9.64551 39.6982 24.1152 58.9912 43.4082l-10.0176 13.3564c-17.8086 -13.3564 -31.165 -20.0342 -40.0693 -20.0342c-5.19434 0 -5.93652 7.04883 -2.22656 21.1475l23.374 89.0439
c9.64648 35.6172 5.56543 53.4258 -12.2432 53.4258c-11.1309 0 -27.6406 -5.37988 -49.5303 -16.1396c-21.8896 -10.7588 -43.2236 -24.6719 -64 -41.7393l8.9043 -14.4688c19.293 12.6143 33.0195 18.9219 41.1826 18.9219c4.45215 0 4.45215 -6.30762 0 -18.9219
l-20.0352 -84.5918c-9.64551 -38.585 -3.33887 -57.8779 18.9219 -57.8779v0z" />
    <glyph glyph-name="uniF10B" unicode="&#xf10b;" 
d="M320.118 448c15.5273 0 27.4961 -4.6123 35.9062 -13.8379s12.6152 -21.0127 12.6152 -35.3633c0 -17.084 -6.30762 -32.1172 -18.9229 -45.1016c-12.6162 -12.9834 -27.9814 -19.4746 -46.0957 -19.4746c-15.5273 0 -27.4961 4.44141 -35.9062 13.3252
c-8.41016 8.88281 -12.292 21.1836 -11.6455 36.9004c0 15.7178 5.66113 30.2383 16.9824 43.5635c11.3223 13.3252 27.0107 19.9883 47.0664 19.9883v0zM214.862 -64c-32.6494 0 -41.4648 31.1572 -26.4463 93.4727l29.3848 133.383
c4.57031 19.6045 4.57031 29.4072 0 29.4072c-3.91797 0 -12.7334 -3.15137 -26.4463 -9.45215c-13.7129 -6.30176 -25.4668 -12.9541 -35.2617 -19.9551l-12.7324 23.1055c29.3838 27.3066 60.2373 49.3623 92.5605 66.166
c32.3223 16.8047 56.9727 25.2061 73.9502 25.2061c25.4668 0 31.3438 -28.3564 17.6309 -85.0703l-34.2822 -139.685c-5.22363 -22.4053 -4.24414 -33.6074 2.93848 -33.6074c14.3662 0 33.6289 10.502 57.79 31.5068l14.6914 -21.0049
c-27.4248 -30.1074 -55.9932 -53.2129 -85.7041 -69.3164c-29.7109 -16.1045 -52.4023 -24.1562 -68.0732 -24.1562v0z" />
    <glyph glyph-name="uniF10C" unicode="&#xf10c;" 
d="M252.925 447.998v0c61.5117 -0.303711 117.7 -40.9316 141.584 -97.6562c8.16895 -19.7568 12.542 -40.0781 12.542 -62.0938v-56.1562h74.5908v-296.094h-450.922v296.094h68.5918c-0.623047 39.6631 -1.4209 85.085 11.999 118.25
c26.0928 59.7314 80.1016 97.96 141.614 97.6562zM252.925 353.717v0c-35.9336 0.989258 -59.8027 -26.376 -63.1943 -65.4688v-56.1562h126.901v56.1562v0.5625c-1.56445 35.9131 -27.7734 63.918 -63.707 64.9062z" />
    <glyph glyph-name="uniF10D" unicode="&#xf10d;" 
d="M399.36 331.264c0 -15.0186 -8.19238 -31.4023 -24.5762 -49.1514c-16.3838 -17.75 -32.9385 -34.6455 -49.6641 -50.6885c-16.7256 -16.042 -25.0879 -29.1836 -25.0879 -39.4238s8.3623 -23.2109 25.0879 -38.9121s33.2803 -32.2559 49.6641 -49.6641
s24.5762 -33.9619 24.5762 -49.6641v-60.416c0 -11.6055 -14.6777 -24.0635 -44.0322 -37.376c-29.3545 -13.3115 -62.4639 -19.9678 -99.3281 -19.9678s-69.9736 6.65625 -99.3281 19.9678c-29.3545 13.3125 -44.0322 25.7705 -44.0322 37.376v60.416
c0 15.7021 8.19238 32.2559 24.5762 49.6641s32.9385 33.9629 49.6641 49.6641s25.0879 28.6719 25.0879 38.9121s-8.3623 23.3818 -25.0879 39.4238c-16.7256 16.043 -33.2803 32.9385 -49.6641 50.6885c-16.3838 17.749 -24.5762 34.1328 -24.5762 49.1514v60.416
c0 10.9229 14.8486 23.04 44.5439 36.3525c29.6963 13.3115 62.6348 19.9678 98.8164 19.9678s69.1201 -6.65625 98.8164 -19.9678c29.6953 -13.3125 44.5439 -25.4297 44.5439 -36.3525v-60.416v0zM153.13 388.394l-9.0957 -7.48828
c-1.34766 -2.85254 -0.673828 -5.34961 2.02148 -7.48926c30.9941 -18.5439 67.3799 -27.8164 109.155 -27.8164c44.4717 0 81.5303 8.91602 111.178 26.7471c4.7168 3.56641 2.02148 8.91504 -8.08496 16.0469c-32.3428 19.2578 -66.3701 28.8867 -102.082 28.8867
c-40.4277 0 -74.792 -9.62891 -103.092 -28.8867v0zM271.222 207.422c1.35352 5.13574 4.39746 10.7852 9.13281 16.9473c4.73535 6.16309 8.11816 10.4424 10.1475 12.8398c2.03027 2.39648 7.27246 7.70312 15.7295 15.9199
c8.45605 8.2168 13.3613 13.0098 14.7139 14.3799c31.1201 31.4971 46.6797 52.3818 46.6797 62.6533l1.01465 25.6777c-33.8252 -18.4883 -71.3721 -27.7314 -112.64 -27.7314s-78.8145 9.24316 -112.64 27.7314l2.0293 -25.6777
c0 -10.9561 15.2217 -31.8408 45.665 -62.6533c2.0293 -2.05469 5.75 -5.64941 11.1621 -10.7852s9.30176 -8.90137 11.6699 -11.2979l9.64062 -9.75781s2.875 -3.59473 8.625 -10.7852c5.75098 -7.18945 7.61133 -10.6133 5.58203 -10.2705
c-2.03027 0.341797 -0.507812 -3.59473 4.56641 -11.8125c5.07324 -8.2168 5.58105 -12.3252 1.52148 -12.3252c0 -3.42383 -0.168945 -6.67578 -0.506836 -9.75684c-0.338867 -3.08203 -1.35352 -6.16309 -3.04492 -9.24414
c-1.69043 -3.08203 -3.04395 -5.82031 -4.05859 -8.2168c-1.01465 -2.39746 -2.875 -5.30664 -5.58105 -8.73047l-6.08887 -7.7041s-2.53711 -2.73828 -7.61035 -8.2168c-5.07422 -5.47754 -7.78027 -8.0459 -8.11914 -7.70312
c-0.337891 0.342773 -3.38184 -2.39648 -9.13281 -8.2168c-5.75 -5.82031 -8.625 -8.55957 -8.625 -8.2168c-30.4434 -30.8135 -45.665 -51.6982 -45.665 -62.6543v-33.8945c2.70605 1.37012 13.8682 5.30664 33.4873 11.8115
c19.6191 6.50586 35.1787 13.8662 46.6797 22.083s17.251 18.1455 17.251 29.7861c0 10.2715 4.39746 15.4072 13.1924 15.4072s13.1924 -5.13574 13.1924 -15.4072c0 -11.6406 5.58105 -21.5693 16.7432 -29.7861c11.1631 -8.2168 27.0605 -15.5771 47.6943 -22.083
c20.6348 -6.50488 31.9658 -10.4414 33.9951 -11.8115v33.8945c0 10.2715 -15.5596 31.1562 -46.6797 62.6543c-1.35254 1.36914 -4.9043 4.79297 -10.6553 10.2705c-5.75 5.47852 -9.4707 9.07324 -11.1621 10.7852s-4.73535 4.96484 -9.13281 9.75781
s-7.44238 8.55957 -9.13281 11.2979c-1.69141 2.73926 -3.7207 6.16309 -6.08887 10.2715s-3.89062 8.0459 -4.56641 11.8115c-0.676758 3.76562 -1.01465 7.70312 -1.01465 11.8115c0 6.16309 0.675781 11.8125 2.0293 16.9473z" />
    <glyph glyph-name="uniF10E" unicode="&#xf10e;" 
d="M36.0566 285.135c-8.98145 0 -12.7812 3.57617 -11.3994 10.7285c1.38184 3.25098 3.4541 5.52539 6.21777 6.82617c0.69043 0 9.1543 2.76367 25.3887 8.29004c16.2354 5.52539 32.2979 10.7275 48.1875 15.6035c15.8906 4.87598 25.9072 7.31445 30.0527 7.31445
h22.7979v73.1426h196.896v-73.1426h23.834c4.14551 0 13.9902 -2.43848 29.5342 -7.31445c15.5449 -4.87598 31.4346 -10.0781 47.6699 -15.6035c16.2344 -5.52637 24.6982 -8.29004 25.3887 -8.29004c6.21777 -2.60059 8.29004 -6.82617 6.21777 -12.6777
c-1.38184 -3.25098 -4.83594 -4.87695 -10.3633 -4.87695h-440.422v0zM483.788 260.754c6.96582 0 13.4092 -3.40527 19.3301 -10.2178s8.88184 -14.1631 8.88184 -22.0508v-93.5801c0 -7.8877 -2.96094 -15.2373 -8.88184 -22.0498s-12.3643 -10.2188 -19.3301 -10.2188
h-52.2451l22.9873 -134.454h-397.061l22.9873 134.454h-51.2002c-6.96582 0 -13.583 3.40625 -19.8525 10.2188s-9.4043 14.1621 -9.4043 22.0498v93.5801c0 7.8877 3.13477 15.2383 9.4043 22.0508s12.8867 10.2178 19.8525 10.2178h454.531v0zM121.904 16.9443h292.572
l-36.5723 170.667h-219.428l-36.5723 -170.667z" />
    <glyph glyph-name="uniF10F" unicode="&#xf10f;" 
d="M321.942 309.78v127.979l190.058 -193.737l-190.058 -193.768v139.761c-190.076 -0.00292969 -298.369 -1.52539 -321.942 -243.775c0 362.262 207.922 363.536 321.942 363.54z" />
    <glyph glyph-name="uniF110" unicode="&#xf110;" 
d="M146.042 165.878v52.2441h220.16v-52.2441h-220.16v0zM465.252 431.502c10.8477 -10.998 16.2715 -24.4619 16.2715 -40.3906v-398.223c0 -15.1699 -5.42383 -28.4443 -16.2715 -39.8223s-24.1279 -17.0664 -39.8379 -17.0664h-338.584
c-14.9629 0 -28.0547 5.68848 -39.2773 17.0664c-11.2217 11.3779 -16.833 24.6523 -16.833 39.8223v398.223c0 15.9287 5.61133 29.3926 16.833 40.3906c11.2227 10.999 24.3145 16.498 39.2773 16.498h338.584c15.71 0 28.9902 -5.49902 39.8379 -16.498zM418.621 395.755
h-335.482v-397.061h335.482v397.061zM366.202 333.062v-52.2451h-220.16v52.2451h220.16v0zM366.202 50.9385h-220.16v52.2451h220.16v-52.2451z" />
    <glyph glyph-name="uniF111" unicode="&#xf111;" 
d="M256 448c70.4932 0 130.782 -25.0439 180.869 -75.1309s75.1309 -110.376 75.1309 -180.869s-25.0439 -130.782 -75.1309 -180.869s-110.376 -75.1309 -180.869 -75.1309s-130.782 25.0439 -180.869 75.1309s-75.1309 110.376 -75.1309 180.869
s25.0439 130.782 75.1309 180.869s110.376 75.1309 180.869 75.1309v0zM250.88 -2.55957c55.4668 0 102.613 19.5977 141.44 58.7939c38.8262 39.1973 58.2393 86.1582 58.2393 140.886c0 55.4668 -19.4131 102.613 -58.2393 141.439
c-38.8271 38.8271 -85.9736 58.2402 -141.44 58.2402c-54.7275 0 -101.688 -19.4131 -140.885 -58.2402c-39.1973 -38.8262 -58.7949 -85.9727 -58.7949 -141.439c0 -54.7275 19.5977 -101.688 58.7949 -140.886c39.1963 -39.1963 86.1572 -58.7939 140.885 -58.7939v0z
M277.876 335.36v-140.685l90.7637 -86.4873l-30.2539 -28.8281l-102.866 98.0176v157.982h42.3564v0z" />
    <glyph glyph-name="uniF112" unicode="&#xf112;" 
d="M241.117 202.24l-179.677 122.88l179.677 122.88v-66.2012h178.723v-113.357h-178.723v-66.2012zM281.123 181.76l179.677 -122.88l-179.677 -122.88v66.2012h-178.723v113.357h178.723v66.2012z" />
    <glyph glyph-name="uniF113" unicode="&#xf113;" 
d="M401.103 81.5205h0.000976562c67.3496 -24.5381 111.114 -48.708 111.114 -65.7568v-80h-512v80c0 17.0762 43.7383 41.2461 111.115 65.7568c67.1318 24.4561 88.5918 45.0996 88.5918 89.2998c0 26.5264 -22.0273 43.7158 -29.5215 66.4512
c-7.49316 22.7354 -11.7891 49.6504 -15.3867 69.2295c-3.59766 19.5781 -5.03906 27.1523 -6.99902 48.0137c-2.45117 26.0352 15.0332 93.249 108.2 93.249c93.1953 0 110.625 -67.2139 108.229 -93.249c-1.96094 -20.8613 -3.39355 -28.4346 -6.99902 -48.0137
c-3.60547 -19.5801 -7.94336 -46.4951 -15.4424 -69.2295c-7.49805 -22.7334 -29.4941 -39.9248 -29.4941 -66.4512c0 -44.2002 21.46 -64.8438 88.5918 -89.2998z" />
    <glyph glyph-name="uniF114" unicode="&#xf114;" 
d="M0.217773 447.764v0h330.969l-84 -84h-162.969v-162.969v-181.031h181.031h162.969v162.969l84 84v-330.969h-330.969h-181.031v181.031v330.969zM448.218 447.764v0l64 -64l-32.7812 -32.7812l-64 64zM399.968 399.514v0l64 -64l-187.625 -187.625l-64 64z
M188.78 182.232v0c14.2344 0.21875 27.3896 -6.04297 37.5625 -15.75c12.2969 -11.7344 20.1875 -28.5156 20.1875 -45.0312h-60.625v60.625c0.958008 0.0732422 1.92578 0.141602 2.875 0.15625z" />
  </font>
</defs>
</svg>
